<svg id="Vrstva_1" data-name="Vrstva 1" xmlns="http://www.w3.org/2000/svg" viewBox="0 0 2000 2000"><defs><style>.cls-1{fill:none;stroke:#4a4952;stroke-linecap:round;stroke-miterlimit:10;stroke-width:60px;}</style></defs><g id="Vrstva_2" data-name="Vrstva 2"><g id="Icons"><g id="_18" data-name=" 18"><line class="cls-1" x1="1000.11" y1="1474.75" x2="1000.11" y2="1738.99"/><path class="cls-1" d="M1659,733.55v590.76a102.61,102.61,0,0,1-50.87,88.59l-556.49,323.29a102.36,102.36,0,0,1-103,0L392.1,1412.9A102.39,102.39,0,0,1,341,1324.31V676a102.17,102.17,0,0,1,51.08-88.59L948.6,264.13a103.47,103.47,0,0,1,103,0l455,264.24a102.59,102.59,0,0,1,0,177.16l-177.17,103L1051,970.42a102.59,102.59,0,0,0-50.86,87.72v301.74"/><path class="cls-1" d="M1329.43,796.7,1051.62,646.91a102.36,102.36,0,0,0-103,0L721.43,778a103,103,0,0,0-50.86,88.8v201.52"/><line class="cls-1" x1="1550.35" y1="1318.5" x2="1337.19" y2="1191.77"/><path class="cls-1" d="M351.8,1372.59h0l288-155.18a90.08,90.08,0,0,1,88.79,2.37L948.6,1353.2a102.41,102.41,0,0,0,103,0l227-131.91a102.58,102.58,0,0,0,50.86-88.58V944.12"/><line class="cls-1" x1="1000.11" y1="616.95" x2="1000.11" y2="249.91"/><polyline class="cls-1" points="458.27 685.06 670.57 808.56 1000.11 1000.16"/></g></g></g></svg>