<svg id="Vrstva_1" data-name="Vrstva 1" xmlns="http://www.w3.org/2000/svg" viewBox="0 0 2000 2000"><defs><style>.cls-1{fill:#4a4952;}</style></defs><g id="Vrstva_2" data-name="Vrstva 2"><g id="Layer_1" data-name="Layer 1"><path class="cls-1" d="M1564.92,1026.06,1697,775.39a729.56,729.56,0,0,0-338.74-413.53Z"/><path class="cls-1" d="M1417.7,619l-83.65-271a731.13,731.13,0,0,0-531.56-52.11Z"/><path class="cls-1" d="M1638.14,1359.85,973.68,1565.7l250.67,131.85A729.59,729.59,0,0,0,1638.14,1359.85Z"/><path class="cls-1" d="M1381.22,1418.22l270.47-83.65A729.57,729.57,0,0,0,1705.37,803Z"/><path class="cls-1" d="M619,582,347.53,666a729.61,729.61,0,0,0-53.42,531.3Z"/><path class="cls-1" d="M581.52,1381.74l83.91,270.47a729.6,729.6,0,0,0,531.3,53.68Z"/><path class="cls-1" d="M434.3,974.2,302.19,1224.87a729.6,729.6,0,0,0,338.74,413.79Z"/><path class="cls-1" d="M1025.54,434.82,775.39,302.71A729.56,729.56,0,0,0,361.86,641.45Z"/><path class="cls-1" d="M228.19,1000c0-426.26,345.55-771.81,771.81-771.81S1771.81,573.74,1771.81,1000,1426.26,1771.81,1000,1771.81C574,1771.24,228.76,1426,228.19,1000Zm1526.69,0c0-417.34-338.32-755.66-755.66-755.66S243.56,582.66,243.56,1000s338.32,755.66,755.66,755.66,755.66-338.32,755.66-755.66Z"/><path class="cls-1" d="M907,994.79V756.89h74c0,3.12,1.3,248.84,0,263.17l-28.66,20.33L905.67,1074a10.17,10.17,0,0,1-7.29,2.09H596.9L789.72,631h85.73L719.1,994H905.67Z"/><path class="cls-1" d="M1341.35,994.79v125.85H1155v249.63H1029.18V1018a8.1,8.1,0,0,1,4.17-7.82l93.81-63.84,26.06-17.46h2.08v67Z"/><path class="cls-1" d="M1029.18,723.27h373.66a73.35,73.35,0,0,1,0,10.69,4.66,4.66,0,0,1-2.86,2.6l-22.15,15.38L1303,802.49c-22.4,14.85-44.55,30-66.7,45.34a12.09,12.09,0,0,1-6,1.3H1155a30.6,30.6,0,0,0,0,4.69v44.56a6,6,0,0,1-3.13,5.73l-76.34,52.11-42.22,28.67-3.91,2.34Z"/><path class="cls-1" d="M981.24,1044.82V1229H907V1098.76a7,7,0,0,1,3.38-6.52l65.93-44Z"/><path class="cls-1" d="M1402.58,870.76H1241.29c1.82-2.35,156.34-107.1,161-109.7C1403.1,763.92,1403.36,865.28,1402.58,870.76Z"/></g></g></svg>