<svg id="Vrstva_1" data-name="Vrstva 1" xmlns="http://www.w3.org/2000/svg" viewBox="0 0 2000 2000"><defs><style>.cls-1{fill:none;stroke:#4a4952;stroke-linecap:round;stroke-miterlimit:10;stroke-width:40px;}</style></defs><g id="Vrstva_2" data-name="Vrstva 2"><g id="Icons"><g id="_19" data-name=" 19"><path class="cls-1" d="M993.49,936.1V668.72a37.39,37.39,0,0,0-11-26.56L830.93,490.46a37.46,37.46,0,0,0-26.56-11H267.29a37.42,37.42,0,0,0-37.61,37.08V1483a37.43,37.43,0,0,0,37.25,37.61H750"/><path class="cls-1" d="M819.88,590.82V507a11.58,11.58,0,0,1,19.78-8.2L973.53,632.71a11.76,11.76,0,0,1-8.2,20H855"/><path class="cls-1" d="M819.88,565.86v51.7a35.65,35.65,0,0,0,35.65,35.65h0"/><path class="cls-1" d="M1241.09,1054.1h227.45a37.61,37.61,0,0,1,37.61,37.61h0V1483a37.61,37.61,0,0,1-37.61,37.61H898.13A37.61,37.61,0,0,1,860.52,1483h0V1091.71a37.61,37.61,0,0,1,37.61-37.61h343"/><path class="cls-1" d="M969.43,1149.29l142.6,97a128,128,0,0,0,143.67,0l147.24-98.93"/><line class="cls-1" x1="336.81" y1="862.3" x2="771.92" y2="862.3"/><line class="cls-1" x1="336.81" y1="969.07" x2="771.92" y2="969.07"/><line class="cls-1" x1="336.81" y1="1075.85" x2="554.28" y2="1075.85"/><rect class="cls-1" x="1080.84" y="663.19" width="427.27" height="272.91" rx="37.61"/><path class="cls-1" d="M1681.47,1424.25l-27,49.28h-13l-27.09-49.21a117.85,117.85,0,0,1-14.62-56.86V839.3a37.61,37.61,0,0,1,37.61-37.61h21A37.44,37.44,0,0,1,1696,839v528.63A117.81,117.81,0,0,1,1681.47,1424.25Z"/><line class="cls-1" x1="1647.86" y1="1473.53" x2="1647.86" y2="1519.34"/><path class="cls-1" d="M1770.32,1034.85V915.6A37.42,37.42,0,0,0,1733.07,878h-23.53"/><path class="cls-1" d="M481,693.67a62.75,62.75,0,1,0-49.2,49.2A62.75,62.75,0,0,0,481,693.67Z"/><path class="cls-1" d="M1414,1386.54a46.52,46.52,0,1,0-35.65,35.65A46.52,46.52,0,0,0,1414,1386.54Z"/><line class="cls-1" x1="1173.53" y1="753.56" x2="1358.02" y2="753.56"/><line class="cls-1" x1="1173.53" y1="837.34" x2="1415.6" y2="837.34"/></g></g></g></svg>