<svg id="Vrstva_1" data-name="Vrstva 1" xmlns="http://www.w3.org/2000/svg" viewBox="0 0 2000 2000"><defs><style>.cls-1{fill:none;stroke:#4a4952;stroke-linecap:round;stroke-miterlimit:10;stroke-width:60px;}</style></defs><g id="Vrstva_2" data-name="Vrstva 2"><g id="Icons"><g id="_10" data-name=" 10"><path class="cls-1" d="M1567.9,1395.79a80.65,80.65,0,0,1-80.65,80.65H257.8a77.93,77.93,0,0,1-78.18-80.65h0V604.21a80.65,80.65,0,0,1,80.66-80.65H1477a89.81,89.81,0,0,1,89.81,89.68Z"/><path class="cls-1" d="M1438,1265.87a80.67,80.67,0,0,1-80.65,80.66H538.19a80.65,80.65,0,0,1-80.66-80.65V734.13a80.65,80.65,0,0,1,80.66-80.65h812a89.56,89.56,0,0,1,89.56,89.86Z"/><path class="cls-1" d="M1702.74,709.54H1819.9l.52,563.08L1761.84,1365l-58.58-92.39V674.18a51.45,51.45,0,0,1,51.3-51.61h65.86"/><line class="cls-1" x1="317.76" y1="1176.82" x2="317.76" y2="1143.79"/><line class="cls-1" x1="317.76" y1="1016.42" x2="317.76" y2="983.58"/><line class="cls-1" x1="317.76" y1="856.03" x2="317.76" y2="823.18"/></g></g></g></svg>