<svg id="Vrstva_1" data-name="Vrstva 1" xmlns="http://www.w3.org/2000/svg" viewBox="0 0 2000 2000"><defs><style>.cls-1{fill:#4a4952;}.cls-2{fill:none;stroke:#4a4952;stroke-linecap:round;stroke-linejoin:round;stroke-width:40px;}</style></defs><g id="Vrstva_2" data-name="Vrstva 2"><g id="Icons"><g id="_13" data-name=" 13"><path class="cls-1" d="M1245,1622.17a25.75,25.75,0,0,1,25.58,21.9v0l8,51a26.14,26.14,0,0,1-22.29,29.18,27,27,0,0,1-3.48.25H752.51a26.15,26.15,0,0,1-26.09-26.12,28,28,0,0,1,.31-4c0-.15,0-.3.07-.44L734,1643.9a25.76,25.76,0,0,1,25.56-21.73H1245m0-40H759.57a65.91,65.91,0,0,0-65.11,55.74l-7.25,50.35a67.21,67.21,0,0,0-.79,10.11,66.12,66.12,0,0,0,66.06,66.15h500.43a66.09,66.09,0,0,0,65.27-75.22l-8.08-51.39a65.91,65.91,0,0,0-65.11-55.74Z"/><path class="cls-2" d="M1239.44,1449.14l111.27-248.66a65.9,65.9,0,0,0,1.45-50.56L1122,547.34a65.69,65.69,0,0,0-62.17-42.48h-57.6"/><path class="cls-2" d="M893.39,504.86,647,1149.92a65.3,65.3,0,0,0,1.86,50.35l99.88,223.8v157.06"/><line class="cls-2" x1="1002.18" y1="504.86" x2="1002.18" y2="1110.22"/><path class="cls-1" d="M999.38,1139.29a49.11,49.11,0,0,1,7.84,97.58,50.73,50.73,0,0,1-8,.64,49.11,49.11,0,0,1,.11-98.22m0-40a88.2,88.2,0,0,0-14.23,1.15,88.67,88.67,0,1,0,14.23-1.15Z"/><path class="cls-1" d="M1023.3,275.48v47.85H975.45V275.48h47.85m40-40H935.45V363.33H1063.3V235.48Z"/><path class="cls-1" d="M1655.31,275.48v47.85h-47.85V275.48h47.85m40-40H1567.46V363.33h127.85V235.48Z"/><path class="cls-1" d="M1657,866.25V914.1h-47.85V866.25H1657m40-40H1569.12V954.1H1697V826.25Z"/><path class="cls-1" d="M390.88,866.25V914.1H343V866.25h47.85m40-40H303V954.1H430.88V826.25Z"/><path class="cls-1" d="M391.09,275.48v47.85H343.24V275.48h47.85m40-40H303.24V363.33H431.09V235.48Z"/><path class="cls-2" d="M372.24,826.25C390.68,681.2,520,333.91,935.45,302"/><path class="cls-2" d="M1476.7,302l-320.36-2.7v16C1306.16,315.26,1589,491,1618,724.09"/><line class="cls-2" x1="935.45" y1="302" x2="571.58" y2="302"/></g></g></g></svg>