<svg id="Vrstva_1" data-name="Vrstva 1" xmlns="http://www.w3.org/2000/svg" viewBox="0 0 2000 2000"><defs><style>.cls-1,.cls-2{fill:none;stroke:#4a4952;stroke-linecap:round;stroke-width:60px;}.cls-1{stroke-miterlimit:10;}.cls-2{stroke-miterlimit:10;}</style></defs><g id="Vrstva_2" data-name="Vrstva 2"><g id="Icons"><g id="_4" data-name=" 4"><path class="cls-1" d="M1773,750.46v756.67a98,98,0,0,1-98.23,97.8H324.83a97.8,97.8,0,0,1-97.81-97.8h0V704.77A97.81,97.81,0,0,1,324.83,607H1773"/><path class="cls-1" d="M1024,607V451.9a56.83,56.83,0,0,1,56.84-56.83h308.85a56.83,56.83,0,0,1,56.83,56.83h0V501"/><path class="cls-1" d="M458.44,487.08h71.64a56.83,56.83,0,0,1,56.84,56.83h0v62.85H401.39V544.13A56.84,56.84,0,0,1,458,487.08Z"/><path class="cls-1" d="M574.48,834.75a81.29,81.29,0,1,1-67.35-67.35A81.29,81.29,0,0,1,574.48,834.75Z"/><ellipse class="cls-2" cx="1235.35" cy="1106.05" rx="384.13" ry="382.63" transform="translate(-420.27 1197.48) rotate(-45)"/><circle class="cls-1" cx="1235.28" cy="1106.06" r="257.59"/><line class="cls-1" x1="1134.26" y1="501.02" x2="1336.51" y2="501.02"/><line class="cls-1" x1="460.8" y1="1053.94" x2="527.72" y2="1053.94"/></g></g></g></svg>